<svg xmlns="http://www.w3.org/2000/svg" width="740" height="780" viewBox="0 0 740 780">
  <linearGradient id="a" x1="-3.36" y1="464.56" x2="748.99" y2="288.35" gradientUnits="userSpaceOnUse">
    <stop offset="0" stop-color="#fd7096"/>
    <stop offset="1" stop-color="#ff386c"/>
  </linearGradient>
  <path fill="url(#a)" d="M739.65,288.87a229.27,229.27,0,0,0-2.54-49C720.83,138.51,628.72,63.41,533.81,34.66,426.69,2.18,294.18-19.83,187.42,26.56,98.86,65,73.14,150.52,54.38,236.14,36.21,319.16-11.48,400,2.54,487.6,15.9,571,82,632.37,144.71,683.77c61.07,50.09,133.15,110.77,218.25,93.1C476.86,753.29,564.59,606.44,631,522.23,683.17,456.17,734.93,375.88,739.65,288.87Z"/>
  <path class="uk-preserve" fill="#fff" opacity="0.15" d="M630.31,524.44c46.94-59.79,93.56-131.19,105.76-208.68a196.84,196.84,0,0,0-63.25-58c-94.51-54.57-215.37-22.19-269.94,72.33s-22.19,215.39,72.33,269.95a196.88,196.88,0,0,0,79.49,25.57C582.51,589.51,607.65,553.31,630.31,524.44Z"/>
</svg> 
