<svg xmlns="http://www.w3.org/2000/svg" width="560" height="520" viewBox="0 0 560 520">
  <linearGradient id="a" x1="285.94" y1="520.08" x2="277.69" y2="3.19" gradientUnits="userSpaceOnUse">
    <stop offset="0" stop-color="#fd7096"/>
    <stop offset="1" stop-color="#ff386c"/>
  </linearGradient>
  <path fill="url(#a)" d="M14.55,99C-9,153.41-1.85,222.19,20.82,276.85,44.64,334.3,83.71,383.59,123.65,430.72,164,478.33,222.89,519.29,287.81,520c56.71.61,107.93-30.71,146.53-69.72,63.4-64.08,99.5-149.9,116-237.16C558.17,172,562.75,129.82,558.19,88c-2.79-25.56-11.4-61.24-34.34-76.24C500.35-3.58,471.71-.83,445.11,3c-47.5,6.79-95,14.44-143,17a483.81,483.81,0,0,1-59.36-.18C186.86,15.8,125.27,2.8,73.86,32.4A139.35,139.35,0,0,0,14.55,99Z"/>
  <path class="uk-preserve" fill="#fff" opacity="0.15" d="M242.79,19.75c-23.8-1.68-48.63-5-73.26-6a144.66,144.66,0,1,0,194,.57c-20.38,2.49-40.82,4.51-61.35,5.59A483.81,483.81,0,0,1,242.79,19.75Z"/>
</svg>
