<svg xmlns="http://www.w3.org/2000/svg" width="1900" height="560" viewBox="0 0 1900 560">
  <linearGradient id="a" x1="678.27" y1="490.28" x2="30.12" y2="143.4" gradientUnits="userSpaceOnUse">
    <stop offset="0" stop-color="#3893ff"/>
    <stop offset="1" stop-color="#0037ef"/>
  </linearGradient>
  <path fill="url(#a)" d="M707.32,434.13c32.86-49.88,43.86-111.57,19.41-174.73C699.9,190.09,644,156,570.25,158.66c-37.18,1.36-75.81,6.28-110.5-7.11C401.35,129,385,67.47,340,30.6c-45.67-37.43-113.62-38.15-168-15C96.16,47.94,29.48,117,8.71,197c-30,115.63,19.09,242.68,123.34,302.9,92.6,53.5,214.35,66,319.41,57.8C546.13,550.27,652.77,516.92,707.32,434.13Z"/>
  <path class="uk-preserve" fill="#fff" opacity="0.15" d="M570.25,158.66c-14.11.52-28.43,1.54-42.67,1.89a178.08,178.08,0,0,0-32.41,35.82c-55,80.33-34.55,189.18,45.6,243.13a175.37,175.37,0,0,0,143.41,23.79,213.9,213.9,0,0,0,23.14-29.16c32.86-49.88,43.86-111.57,19.41-174.73C699.9,190.09,644,156,570.25,158.66Z"/>
</svg>
