<svg xmlns="http://www.w3.org/2000/svg" width="80" height="30" viewBox="0 0 80 30">
  <path fill="#333" d="M46.59,5.06a2.13,2.13,0,0,0,.7.18A14.06,14.06,0,0,0,49,5.11l1.72-4c-.72-.3-1.38-.55-2-.74A8,8,0,0,0,47.36,0c-.45,0-1-.08-1.14.13a9.82,9.82,0,0,0-.48,1.51A5.19,5.19,0,0,0,45.55,3,3.36,3.36,0,0,0,46,4.48,1.15,1.15,0,0,0,46.59,5.06ZM61.22,16.5c.48-2.25,1.49-7.3,2-10.42.06-.42.16-.64-.07-.74A21.48,21.48,0,0,0,60,4.41c-.33-.09-.67-.25-.83.06a10.34,10.34,0,0,0-.56,1.62A3.35,3.35,0,0,0,57,4.66c-1.53-.59-2.79-.7-3.9.38s-1.7,2.28-2.35,4.8a13.14,13.14,0,0,0-.52,3.35c-1,1.62-2.51,3.45-3.59,3.93a32.82,32.82,0,0,1,.91-5.48c.24-.8.7-2.08,1.42-3.83.25-.59-3.24-1.76-3.81-1.64-.1,0-.28,0-.55.61A13,13,0,0,0,44,8.7a11.11,11.11,0,0,1-4.46,3.1l-.2-.6a3.37,3.37,0,0,1,.45-3,20.25,20.25,0,0,1,1.36-1.7.37.37,0,0,0,0-.52L41,5.9a11.62,11.62,0,0,0-4-2,.89.89,0,0,0-.39.3,9.13,9.13,0,0,0-1.93,3.4,6,6,0,0,0,0,4,7.79,7.79,0,0,0,.48,1,7.86,7.86,0,0,0-2.73.74,3.51,3.51,0,0,0-1.65,2.92c-1.75,1.41-4.52,2.9-5.14.74a8,8,0,0,1-.29-1.61A11.49,11.49,0,0,0,29.66,13c1.92-1.54,4.07-4.57,2.1-6.56-1.08-1.09-3-2.71-4.66-2.29-2.79.72-4.76,3.58-5.6,6.33s-1.15,6,.77,8.16S27.68,21,31.16,18l.16.28a3.14,3.14,0,0,0,.49.6,6.55,6.55,0,0,0,4.26,1.53,5.29,5.29,0,0,0,3.82-1.52,4,4,0,0,0,.67-4.35c-.15-.4-.3-.79-.46-1.17l.35-.13a9.34,9.34,0,0,0,2.72-1.76c-.07.28-.14.57-.2.85-.35,1.64-.83,4-.17,5.64A3.35,3.35,0,0,0,46,19.71c1.52,0,3.65-2.85,4.74-4.47.72,1.71,1.83,2.88,4,1.55a6.27,6.27,0,0,0,2.51-2.31c-.12.21-.5,4-1.32,4.55s-3,.12-4.18-.65c-.12-.07-.93.69-1,.82a7,7,0,0,0,3.13,2.06,8.36,8.36,0,0,0,4.6.06C60.27,20.75,60.72,18.86,61.22,16.5ZM25.85,11.45a14.76,14.76,0,0,1,1-2.51A8.15,8.15,0,0,1,28.1,7.07a2.08,2.08,0,0,1,1.36-.76,3.56,3.56,0,0,1-.13,1.94,10.77,10.77,0,0,1-1,2.15,18.5,18.5,0,0,1-1.47,2.07,17.33,17.33,0,0,1-1.51,1.68A13.81,13.81,0,0,1,25.85,11.45Zm10.78,5.71a2.45,2.45,0,0,1-2.43,1.5c-.39-.15-.31-2,.06-2.78a2.64,2.64,0,0,1,1.27-1.22l.57-.22c.08.16.16.31.23.47A2.91,2.91,0,0,1,36.63,17.16ZM58.08,8.8a14.82,14.82,0,0,1-1,3.45h0a5.58,5.58,0,0,1-2.22,2.67c-.5.27-.47-1.84-.16-3.52a14,14,0,0,1,1.77-4.71c.31-.47.89-.93,1.43-.14A3.69,3.69,0,0,1,58.08,8.8Zm20.45,6.4c-.21.48-2.29,3.83-3.63,3.93-.59,0,.56-4.79.71-5.34.46-1.72.93-3.51,1.32-4.84s.95-2.74-.3-3.3a10.81,10.81,0,0,0-4.32-.77c-.7.07-3.58,4.64-4.59,7.79a17,17,0,0,1,1.06-5.18c.13-.31.39-.8-.24-1.13a12.38,12.38,0,0,0-2.71-.86.37.37,0,0,0-.44.28,37.33,37.33,0,0,0-1.48,12.61c.05,1.2.38,1.25,1,1.43a4,4,0,0,0,1.87.34c.94,0,1-.28,1.21-1.63A24.25,24.25,0,0,1,71.94,8c.22.09-.17,1.57-.66,4.17a44.65,44.65,0,0,0-.87,7.29,1.46,1.46,0,0,0,.7,1.33,7,7,0,0,0,3.62.86c2-.24,4.83-4.15,4.86-5.74C79.6,15.4,78.74,14.71,78.53,15.2ZM20.18,7a13.42,13.42,0,0,0-.7-3.82C18.66,1.08,16.33.77,14.39.62a15.63,15.63,0,0,0-6.67,1A14.22,14.22,0,0,0,2.48,5.17,7.33,7.33,0,0,0,.63,8,4,4,0,0,0,1,11.47,2.09,2.09,0,0,0,3.55,12l.18-.1C4.32,5.76,8.06,3,11.9,2.24c1.19-.18,2.06-.05,2.53,1.19A14.16,14.16,0,0,1,14.89,9a29.66,29.66,0,0,1-1.25,5.66c-.94,2.93-3.19,6.07-3.72,6-.9-.15-.8-.79-.16-4.36A65,65,0,0,1,13,4.85c-1.17-.09-4-.13-5,1A4.34,4.34,0,0,0,7,7.56a34.58,34.58,0,0,0-1.45,10.6,2.85,2.85,0,0,0,.21,1.08,2.29,2.29,0,0,0,.58.73,11.6,11.6,0,0,0,5.22,2.33c1.48.32,2.71-.75,3.75-1.7C18.86,17.26,20.51,12.12,20.18,7Z"/>
  <path fill="#333" d="M25,26.79l-.28-.06c.18-.07.37-.12.54-.2A1.25,1.25,0,0,0,25.93,25a1.49,1.49,0,0,0-.82-.83,3.59,3.59,0,0,0-1.58-.3H19.16v5.95h4.39a5.48,5.48,0,0,0,1.28-.09,2.33,2.33,0,0,0,1.11-.55A1.34,1.34,0,0,0,26,27.31,1.77,1.77,0,0,0,25,26.79Zm-3.77-1.6h2.09a.79.79,0,0,1,.37.1.41.41,0,0,1,.16.16h0a.45.45,0,0,1-.16.61,1.05,1.05,0,0,1-.43.11h-2c-.08,0-.11,0-.11-.11v-.87h.08Zm3,2.81a.47.47,0,0,1-.44.47,3.38,3.38,0,0,1-.45,0h-2c-.09,0-.12,0-.12-.11V27.5c0-.1,0-.12.11-.12h2.3a.41.41,0,0,1,.22,0,.46.46,0,0,1,.4.53A.29.29,0,0,1,24.21,28Zm25.19.33c-.11,0-.14,0-.14-.14a5,5,0,0,0,0-.55c0-.12,0-.15.16-.15H52.7c.17,0,.17,0,.17-.17V26.26c0-.16,0-.16-.16-.16H49.27v-.58c0-.18,0-.16.15-.16h4.13c.1,0,.14,0,.14-.14V24c0-.16,0-.16-.15-.16H47.38c-.16,0-.16,0-.16.16v5.65c0,.11,0,.15.15.15h6.4V28.33Zm14.7-1.69a3.58,3.58,0,0,0-1.58-.56c-.65-.09-1.31-.14-2-.23a2.27,2.27,0,0,1-.62-.16.24.24,0,0,1-.09-.08.21.21,0,0,1,.06-.28h0a.5.5,0,0,1,.19-.1c.21,0,.42-.08.63-.1a4.69,4.69,0,0,1,1.4.07,3.46,3.46,0,0,1,1.27.49h0a.08.08,0,0,0,.11,0l.92-1.14-.06-.06c-.35-.18-.72-.34-1.09-.49a6.53,6.53,0,0,0-2.19-.32A5.18,5.18,0,0,0,59,24a2.26,2.26,0,0,0-1,.78,1.51,1.51,0,0,0,.15,1.87,2.58,2.58,0,0,0,.86.51,10.32,10.32,0,0,0,2.33.45l.91.13a.85.85,0,0,1,.26.11l.1.1h0a.27.27,0,0,1-.11.36,1.48,1.48,0,0,1-.74.19,5.05,5.05,0,0,1-2.92-.63c-.11-.07-.23-.19-.33-.17s-.17.17-.25.26l-.77.88.11.09a6.06,6.06,0,0,0,3,1,7,7,0,0,0,1.59,0,4.05,4.05,0,0,0,1.44-.42,1.8,1.8,0,0,0,1-1.42A1.49,1.49,0,0,0,64.1,26.64ZM43.22,23.86H36.58c-.09,0-.11,0-.11.12v1.31c0,.12,0,.13.15.13h2.07c.11,0,.14,0,.14.15v4.09c0,.11,0,.15.14.15h1.77c.17,0,.17,0,.17-.17V25.57c0-.12,0-.15.16-.15h2.19V23.87Zm-12.76,0h2.06V29.8H30.46Z"/>
</svg>
